<svg xmlns="http://www.w3.org/2000/svg" viewBox="0 0 64 64" fill="none">
  <rect width="64" height="64" rx="18" fill="#F8FBFF"/>
  <path d="M14 14h28l8 8v28c0 3.314-2.686 6-6 6H20c-3.314 0-6-2.686-6-6V14Z" fill="#DDEEFF"/>
  <path d="M42 14v10h10" fill="#BFDBFE"/>
  <path d="M42 14v10h10" stroke="#93C5FD" stroke-linejoin="round" stroke-width="3"/>
  <path d="M32 24c-7.18 0-13 5.82-13 13s5.82 13 13 13c3.634 0 6.92-1.49 9.277-3.893" stroke="#1D4ED8" stroke-linecap="round" stroke-width="6"/>
  <path d="M45 37a13 13 0 0 1-4.138 9.503" stroke="#22C55E" stroke-linecap="round" stroke-width="6"/>
  <circle cx="42.5" cy="47.5" r="3.5" fill="#1D4ED8"/>
</svg>
