<?xml version="1.0" encoding="UTF-8"?>
<svg version="1.1" xmlns="http://www.w3.org/2000/svg" width="1376" height="768">
<path d="M0 0 C220.44 0 440.88 0 668 0 C668 220.44 668 440.88 668 668 C447.56 668 227.12 668 0 668 C0 447.56 0 227.12 0 0 Z " fill="#FBFBFB" transform="translate(354,50)"/>
<path d="M0 0 C2.83428117 0.02151443 5.66603669 -0.00000019 8.50024414 -0.02539062 C21.48198045 -0.0445686 33.62691115 1.64040886 46.26782227 4.52148438 C47.09535507 4.70636414 47.92288788 4.8912439 48.77549744 5.08172607 C80.09997916 12.12631179 108.71468566 27.72857536 132.16625977 49.57226562 C134.04709894 51.31676144 135.97400258 52.95616005 137.95532227 54.58398438 C141.81739836 57.890495 145.04569658 61.59726127 148.26782227 65.52148438 C148.87932129 66.26446777 148.87932129 66.26446777 149.50317383 67.02246094 C168.99930801 90.85423871 183.67991094 118.2897581 190.26782227 148.52148438 C190.44974121 149.32489258 190.63166016 150.12830078 190.8190918 150.95605469 C197.72452116 182.4653596 196.317934 217.83154586 186.26782227 248.52148438 C186.05351563 249.19920898 185.83920898 249.87693359 185.6184082 250.57519531 C179.75954335 268.83627478 171.26892025 287.61871615 158.87719727 302.38476562 C157.1938234 304.61973045 156.51483926 305.75520595 156.26782227 308.52148438 C157.58479828 310.5541475 157.58479828 310.5541475 159.64257812 312.43212891 C160.40344223 313.18615997 161.16430634 313.94019104 161.94822693 314.71707153 C162.78459183 315.5213559 163.62095673 316.32564026 164.48266602 317.15429688 C165.32753067 317.98734344 166.17239532 318.82039001 167.04286194 319.67868042 C169.75217171 322.34664756 172.47769618 324.99725626 175.20532227 327.64648438 C177.92674769 330.30535656 180.64459585 332.96770904 183.35707092 335.63571167 C185.0483979 337.29766761 186.74543207 338.95383796 188.44847107 340.60379028 C189.21248734 341.35151703 189.9765036 342.09924377 190.76367188 342.86962891 C191.441754 343.52818878 192.11983612 344.18674866 192.81846619 344.86526489 C194.26782227 346.52148438 194.26782227 346.52148438 194.26782227 348.52148438 C192.98266602 349.74804688 192.98266602 349.74804688 191.20532227 351.14648438 C188.55881183 353.32420293 186.2715773 355.55852449 184.06152344 358.17553711 C177.78456442 365.44920253 170.91771906 372.17363706 164.15136719 378.98803711 C162.42661319 380.72949654 160.70726245 382.47632285 158.99316406 384.22827148 C156.50937525 386.76647228 154.00985637 389.28815007 151.50610352 391.80664062 C150.7393782 392.59603531 149.97265289 393.38542999 149.18269348 394.19874573 C148.46482162 394.91376755 147.74694977 395.62878937 147.00732422 396.36547852 C146.38001907 397.00087051 145.75271393 397.63626251 145.10639954 398.29090881 C143.26782227 399.52148438 143.26782227 399.52148438 141.28701782 399.45631409 C138.71024776 398.26334335 137.19482 396.76500991 135.22119141 394.72021484 C134.43680191 393.9162326 133.65241241 393.11225037 132.84425354 392.28390503 C132.00563278 391.41097809 131.16701202 390.53805115 130.30297852 389.63867188 C128.51628234 387.81404842 126.72915992 385.98984228 124.94165039 384.16601562 C122.12688278 381.27663734 119.31644948 378.38337255 116.51513672 375.48095703 C113.81441357 372.68457777 111.08994125 369.91192997 108.36547852 367.13867188 C107.52888199 366.26169647 106.69228546 365.38472107 105.83033752 364.48117065 C105.04279587 363.68349274 104.25525421 362.88581482 103.44384766 362.06396484 C102.41270592 360.99926468 102.41270592 360.99926468 101.36073303 359.91305542 C99.32977861 358.25533784 99.32977861 358.25533784 96.70994568 358.70217896 C93.37620771 359.82061121 90.35908357 361.43336749 87.26782227 363.08398438 C43.35964293 385.60139335 -8.44614124 388.57386376 -55.3527832 373.68994141 C-87.72933787 362.79740144 -118.82653997 342.95111255 -140.73217773 316.52148438 C-141.49014648 315.65136719 -142.24811523 314.78125 -143.02905273 313.88476562 C-164.72384975 288.65277344 -177.91307944 258.89620235 -184.73217773 226.52148438 C-184.96807617 225.41675781 -185.20397461 224.31203125 -185.44702148 223.17382812 C-194.56046715 176.94138479 -183.74451454 126.0236852 -157.73217773 86.95898438 C-155.77371435 84.11524809 -153.76520196 81.31224715 -151.73217773 78.52148438 C-151.30001953 77.91578613 -150.86786133 77.31008789 -150.42260742 76.68603516 C-139.04077552 60.84756806 -124.61780599 46.80746038 -108.73217773 35.52148438 C-108.1334082 35.09432129 -107.53463867 34.6671582 -106.91772461 34.22705078 C-75.60956133 12.12862323 -38.40077842 -0.34478813 0 0 Z " fill="#19203A" transform="translate(684.732177734375,140.478515625)"/>
<path d="M0 0 C20.53982759 17.84636957 34.83468857 39.02568637 41.31494141 65.58789062 C41.57678223 66.62655273 41.83862305 67.66521484 42.10839844 68.73535156 C44.10367985 77.19666943 44.79174386 85.15835415 44.68994141 93.83789062 C44.67979004 95.10205811 44.66963867 96.36622559 44.65917969 97.66870117 C44.2969687 119.64423827 38.50506976 137.29297303 28.31494141 156.58789062 C25.09098971 155.1724972 22.95827349 153.47374135 20.50244141 150.96289062 C19.87724609 150.33125 19.25205078 149.69960938 18.60791016 149.04882812 C14.09541225 144.20577246 9.80859789 139.30751019 5.94628906 133.92626953 C0.4025315 126.77950664 -5.19935895 120.75455031 -14.49767876 119.27830696 C-24.40235874 118.16202804 -34.37299389 118.64017701 -44.31005859 118.96289062 C-55.32380859 119.16914063 -66.33755859 119.37539063 -77.68505859 119.58789062 C-77.68505859 151.92789063 -77.68505859 184.26789063 -77.68505859 217.58789062 C-107.97929145 215.99345732 -133.67408501 208.8120681 -156.68505859 188.58789062 C-157.51263672 187.89179688 -158.34021484 187.19570313 -159.19287109 186.47851562 C-175.25242037 172.62899607 -186.63985231 154.07714286 -193.87255859 134.27539062 C-194.11063232 133.63690186 -194.34870605 132.99841309 -194.59399414 132.34057617 C-198.86251288 120.13946495 -200.19975336 108.00391451 -200.06005859 95.15039062 C-200.05540588 94.4740155 -200.05075317 93.79764038 -200.04595947 93.10076904 C-199.96448025 82.97854304 -199.53341022 73.36759223 -196.68505859 63.58789062 C-196.4970166 62.93320801 -196.30897461 62.27852539 -196.11523438 61.60400391 C-185.92048431 27.14299115 -162.9501296 1.71211801 -131.70996094 -15.35644531 C-90.11924039 -37.03938185 -35.66268105 -29.88596743 0 0 Z " fill="#FAFAFA" transform="translate(765.68505859375,236.412109375)"/>
<path d="M0 0 C69 0 69 0 85.375 12 C90.2734375 18.75 90.2734375 18.75 92.2019043 22.00585938 C95.77088759 27.94883441 100.39494711 32.9235979 106 37 C106.495 36.01 106.495 36.01 107 35 C107 35.66 107 36.32 107 37 C131.42 37 155.84 37 181 37 C177.69276235 46.92171294 174.58273737 55.61140099 169.75 64.6875 C169.18442383 65.76604248 168.61884766 66.84458496 168.03613281 67.95581055 C164.40635729 74.74493034 160.55653514 80.96821634 155.609375 86.86328125 C153.92600113 89.09824607 153.247017 90.23372158 153 93 C154.31697602 95.03266313 154.31697602 95.03266313 156.37475586 96.91064453 C157.13561996 97.6646756 157.89648407 98.41870667 158.68040466 99.19558716 C159.93495201 100.4020137 159.93495201 100.4020137 161.21484375 101.6328125 C162.0597084 102.46585907 162.90457306 103.29890564 163.77503967 104.15719604 C166.48434944 106.82516319 169.20987391 109.47577188 171.9375 112.125 C174.65892543 114.78387219 177.37677358 117.44622467 180.08924866 120.11422729 C181.78057564 121.77618323 183.4776098 123.43235358 185.1806488 125.08230591 C185.94466507 125.83003265 186.70868134 126.5777594 187.49584961 127.34814453 C188.17393173 128.00670441 188.85201385 128.66526428 189.55064392 129.34378052 C191 131 191 131 191 133 C189.71484375 134.2265625 189.71484375 134.2265625 187.9375 135.625 C185.29098956 137.80271856 183.00375503 140.03704012 180.79370117 142.65405273 C174.51674215 149.92771815 167.64989679 156.65215269 160.88354492 163.46655273 C159.15879092 165.20801217 157.43944019 166.95483848 155.7253418 168.70678711 C153.24155298 171.24498791 150.7420341 173.76666569 148.23828125 176.28515625 C147.47155594 177.07455093 146.70483063 177.86394562 145.91487122 178.67726135 C145.19699936 179.39228317 144.4791275 180.10730499 143.73950195 180.84399414 C143.11219681 181.47938614 142.48489166 182.11477814 141.83857727 182.76942444 C140 184 140 184 138.01919556 183.93482971 C135.4424255 182.74185897 133.92699773 181.24352554 131.95336914 179.19873047 C131.16897964 178.39474823 130.38459015 177.59076599 129.57643127 176.76242065 C128.73781052 175.88949371 127.89918976 175.01656677 127.03515625 174.1171875 C125.24846007 172.29256405 123.46133765 170.4683579 121.67382812 168.64453125 C118.85906051 165.75515297 116.04862722 162.86188818 113.24731445 159.95947266 C110.54659131 157.1630934 107.82211898 154.39044559 105.09765625 151.6171875 C104.26105972 150.7402121 103.4244632 149.86323669 102.56251526 148.95968628 C101.7749736 148.16200836 100.98743195 147.36433044 100.17602539 146.54248047 C99.48859756 145.83268036 98.80116974 145.12288025 98.09291077 144.39157104 C96.06195634 142.73385346 96.06195634 142.73385346 93.44212341 143.18069458 C90.10838545 144.29912683 87.0912613 145.91188311 84 147.5625 C53.02102131 163.44943367 21.44001926 167.62028297 -13 167 C-13 166.67 -13 166.34 -13 166 C-8.71 166 -4.42 166 0 166 C0 111.22 0 56.44 0 0 Z " fill="#40E18F" transform="translate(688,356)"/>
<path d="M0 0 C69 0 69 0 85.375 12 C90.2734375 18.75 90.2734375 18.75 92.2019043 22.00585938 C95.77088759 27.94883441 100.39494711 32.9235979 106 37 C106.495 36.01 106.495 36.01 107 35 C107 35.66 107 36.32 107 37 C131.42 37 155.84 37 181 37 C176 52 176 52 173 57 C170.78800678 57.61523914 170.78800678 57.61523914 168.15950012 57.60127258 C167.16250595 57.6081459 166.16551178 57.61501923 165.13830566 57.62210083 C164.04570435 57.60412445 162.95310303 57.58614807 161.82739258 57.56762695 C160.67603317 57.56835709 159.52467377 57.56908722 158.33842468 57.56983948 C154.52331843 57.56634913 150.70942488 57.52741653 146.89453125 57.48828125 C144.25323656 57.47895835 141.61193324 57.47183978 138.97062683 57.46684265 C132.72314025 57.45129689 126.47609071 57.41025921 120.22879666 57.3600952 C113.11646957 57.30422395 106.0041217 57.27672094 98.89162982 57.25161803 C84.260861 57.19934353 69.63043661 57.11138743 55 57 C54.55573418 58.13301041 54.55573418 58.13301041 54.10249329 59.28890991 C52.71802086 62.69340181 51.07700737 65.9504524 49.41796875 69.2265625 C48.69703538 70.65914573 47.9761719 72.09176413 47.25537109 73.52441406 C46.88329529 74.26228149 46.51121948 75.00014893 46.12786865 75.76037598 C44.30222101 79.38558918 42.48952578 83.01725873 40.67578125 86.6484375 C39.94993499 88.10029301 39.22402334 89.55211584 38.49804688 91.00390625 C38.13831787 91.72336426 37.77858887 92.44282227 37.40795898 93.18408203 C25.27197266 117.45605469 13.13598633 141.72802734 1 166 C0.67 166 0.34 166 0 166 C0 111.22 0 56.44 0 0 Z " fill="#19C176" transform="translate(688,356)"/>
<path d="M0 0 C8.3381724 6.0543715 13.53525298 16.05381451 15.76953125 25.96484375 C17.80368448 39.75684971 15.22842403 52.7843899 7.296875 64.2890625 C5.79846928 66.5574618 5.79846928 66.5574618 6.125 70.375 C7.79814606 73.22666398 7.79814606 73.22666398 10 76.0625 C10.71929688 77.03574219 11.43859375 78.00898437 12.1796875 79.01171875 C13.90554978 81.4345875 13.90554978 81.4345875 16.125 82.375 C16.125 83.035 16.125 83.695 16.125 84.375 C-0.38397061 85.46521504 -0.38397061 85.46521504 -4.0546875 82.78125 C-4.91734574 81.49491936 -5.75354536 80.19033634 -6.55859375 78.8671875 C-7.77836785 77.14912567 -7.77836785 77.14912567 -9.97265625 77.1328125 C-11.66734702 77.34229884 -13.35679962 77.59761825 -15.0390625 77.890625 C-26.75004096 79.89084722 -36.50352393 77.76817496 -46.625 71.75 C-55.45352714 65.41683473 -60.07097559 55.90921396 -61.875 45.375 C-63.13549141 30.92394167 -62.43561066 17.9352155 -52.875 6.375 C-38.44133776 -8.92848746 -18.12401347 -10.81297075 0 0 Z " fill="#1B2139" transform="translate(656.875,572.625)"/>
<path d="M0 0 C5.20925115 4.36099739 10.09580519 8.93563692 14.90234375 13.734375 C15.98619102 14.81322968 15.98619102 14.81322968 17.0919342 15.91387939 C18.60499385 17.42190926 20.11673124 18.93126687 21.62719727 20.44189453 C23.94983939 22.76232766 26.28039146 25.07462139 28.61132812 27.38671875 C30.08382145 28.85628191 31.55584391 30.32631705 33.02734375 31.796875 C33.72721909 32.48956482 34.42709442 33.18225464 35.1481781 33.89593506 C35.78626907 34.53710266 36.42436005 35.17827026 37.08178711 35.83886719 C37.64691513 36.40257019 38.21204315 36.96627319 38.79429626 37.54705811 C40 39 40 39 40 41 C38.71484375 42.2265625 38.71484375 42.2265625 36.9375 43.625 C34.29098956 45.80271856 32.00375503 48.03704012 29.79370117 50.65405273 C23.51674215 57.92771815 16.64989679 64.65215269 9.88354492 71.46655273 C8.15879092 73.20801217 6.43944019 74.95483848 4.7253418 76.70678711 C2.24155298 79.24498791 -0.2579659 81.76666569 -2.76171875 84.28515625 C-3.52844406 85.07455093 -4.29516937 85.86394562 -5.08512878 86.67726135 C-5.80300064 87.39228317 -6.5208725 88.10730499 -7.26049805 88.84399414 C-8.20145576 89.79708214 -8.20145576 89.79708214 -9.16142273 90.76942444 C-11 92 -11 92 -12.97584534 91.93086243 C-15.54540069 90.7491827 -17.12082107 89.26054227 -19.12597656 87.26220703 C-20.32676849 86.07559982 -20.32676849 86.07559982 -21.55181885 84.86502075 C-22.40612488 84.00464203 -23.26043091 83.14426331 -24.140625 82.2578125 C-25.02280701 81.37850067 -25.90498901 80.49918884 -26.81390381 79.5932312 C-28.67694013 77.73223692 -30.53664325 75.8684997 -32.39160156 73.99951172 C-34.7712076 71.60278915 -37.16406181 69.21981957 -39.56119156 66.84063911 C-41.8449609 64.5703035 -44.11728351 62.28858253 -46.390625 60.0078125 C-47.25302795 59.15148224 -48.11543091 58.29515198 -49.00396729 57.41287231 C-49.7918866 56.61549652 -50.57980591 55.81812073 -51.39160156 54.99658203 C-52.09013245 54.29566437 -52.78866333 53.5947467 -53.50836182 52.87258911 C-55 51 -55 51 -55 48 C-52.65355358 46.3940555 -50.33607009 44.97182118 -47.875 43.5625 C-29.48209188 32.48936373 -13.68002461 16.42041415 0 0 Z " fill="#192039" transform="translate(839,448)"/>
<path d="M0 0 C8.71844341 -0.02255338 17.43686759 -0.04091645 26.15533352 -0.05181217 C30.20325742 -0.05704041 34.25116041 -0.06413699 38.29907227 -0.07543945 C42.20235971 -0.08627043 46.10562699 -0.09227728 50.0089283 -0.09487724 C51.50133647 -0.09673111 52.99374348 -0.100351 54.48614311 -0.10573006 C56.56948139 -0.11294331 58.65273531 -0.11399083 60.73608398 -0.11352539 C61.92411118 -0.115746 63.11213837 -0.11796661 64.33616638 -0.12025452 C67 0 67 0 68 1 C68.14426614 5.66845228 68.04208415 10.32865953 68 15 C59.75 15 51.5 15 43 15 C43 37.44 43 59.88 43 83 C37.06 83 31.12 83 25 83 C25 60.56 25 38.12 25 15 C16.75 15 8.5 15 0 15 C0 10.05 0 5.1 0 0 Z " fill="#1E243B" transform="translate(714,567)"/>
<path d="M0 0 C5.60940801 3.42848496 8.9931898 7.46338865 10.88745117 13.83325195 C12.91433165 23.71620367 12.54694262 35.21070343 7.30859375 43.88671875 C4.74666639 42.82661088 3.50992384 42.21628062 2.0390625 39.80859375 C0.32913073 37.51007839 0.32913073 37.51007839 -3.265625 37.27734375 C-4.63592175 37.21114584 -6.0073008 37.16489365 -7.37890625 37.13671875 C-8.08080078 37.10707031 -8.78269531 37.07742188 -9.50585938 37.046875 C-11.23376049 36.97634842 -12.96258945 36.92924807 -14.69140625 36.88671875 C-13.98113281 37.80195312 -13.27085937 38.7171875 -12.5390625 39.66015625 C-11.61058797 40.86060817 -10.68220743 42.06113278 -9.75390625 43.26171875 C-9.28533203 43.865 -8.81675781 44.46828125 -8.33398438 45.08984375 C-4.8046875 49.66015625 -4.8046875 49.66015625 -3.69140625 51.88671875 C-11.21521693 52.57417353 -16.70381628 52.42797849 -22.84765625 47.7421875 C-29.80688871 40.73872263 -30.05298483 31.87503853 -30.07202148 22.58349609 C-29.92609862 14.44847997 -28.61061636 8.89555736 -22.8125 2.96484375 C-16.20899097 -2.33742133 -7.8226536 -3.23578559 0 0 Z " fill="#F8F8F9" transform="translate(642.69140625,583.11328125)"/>
<path d="M0 0 C5.94 0 11.88 0 18 0 C18 27.39 18 54.78 18 83 C12.06 83 6.12 83 0 83 C0 55.61 0 28.22 0 0 Z " fill="#252B43" transform="translate(685,567)"/>
<path d="M0 0 C220.11 0 440.22 0 667 0 C663.31719351 2.45520433 661.61610232 2.14990909 657.25 2 C652.01151793 1.91412324 648.01448049 2.45708293 643 4 C637.67515821 4.43951075 632.82620245 4.57397464 628 2 C627.34 2.66 626.68 3.32 626 4 C625.071875 3.4740625 625.071875 3.4740625 624.125 2.9375 C623.42375 2.628125 622.7225 2.31875 622 2 C621.34 2.33 620.68 2.66 620 3 C620 2.34 620 1.68 620 1 C619.01 1 618.02 1 617 1 C616.34 2.32 615.68 3.64 615 5 C614.05125 4.814375 613.1025 4.62875 612.125 4.4375 C609.10131207 3.71313368 609.10131207 3.71313368 607 5 C606.67 4.01 606.34 3.02 606 2 C602.04 1.505 602.04 1.505 598 1 C597.67 1.66 597.34 2.32 597 3 C597 2.34 597 1.68 597 1 C595.41642541 1.31127516 593.83315007 1.62407289 592.25 1.9375 C590.92742187 2.19853516 590.92742187 2.19853516 589.578125 2.46484375 C587.36764947 2.92368488 585.18487932 3.43336074 583 4 C583 3.34 583 2.68 583 2 C580.50914896 1.93080969 578.35167374 1.90408898 575.9375 2.5625 C574 3 574 3 572.3125 2.5390625 C569.20216109 1.81401728 566.25377057 1.82952919 563.0625 1.8125 C561.85722656 1.79832031 560.65195312 1.78414062 559.41015625 1.76953125 C556.10312144 1.99303074 553.98177852 2.6380804 551 4 C545.4109589 5.20547945 545.4109589 5.20547945 543 4 C543 3.34 543 2.68 543 2 C539.04 1.67 535.08 1.34 531 1 C531 1.99 531 2.98 531 4 C525.11542026 5.09712504 523.11198557 5.19499098 518 2 C515.19702775 1.61901348 512.85823224 1.76571867 510 2 C509.34 2.66 508.68 3.32 508 4 C508 3.01 508 2.02 508 1 C506.68 1.99 505.36 2.98 504 4 C503.67 3.34 503.34 2.68 503 2 C497.78556667 1.97529065 492.57116739 1.95713556 487.35668945 1.94506836 C485.58259487 1.940038 483.80850444 1.93321301 482.03442383 1.92456055 C479.48517839 1.91243826 476.93598774 1.90675874 474.38671875 1.90234375 C473.19594978 1.89460182 473.19594978 1.89460182 471.98112488 1.88670349 C468.72343714 1.88637123 466.11318479 1.96227174 463 3 C460.3125 2.5625 460.3125 2.5625 458 2 C457.67 2.66 457.34 3.32 457 4 C456.67 3.34 456.34 2.68 456 2 C454.62714844 2.01740234 454.62714844 2.01740234 453.2265625 2.03515625 C451.44378906 2.04869141 451.44378906 2.04869141 449.625 2.0625 C448.44164062 2.07410156 447.25828125 2.08570313 446.0390625 2.09765625 C443 2 443 2 441 1 C441 1.66 441 2.32 441 3 C438.36 3.33 435.72 3.66 433 4 C433 3.34 433 2.68 433 2 C432.34 2 431.68 2 431 2 C430.67 2.66 430.34 3.32 430 4 C429.67 3.34 429.34 2.68 429 2 C427.02 2 425.04 2 423 2 C422.67 2.66 422.34 3.32 422 4 C421.37351562 3.98839844 420.74703125 3.97679687 420.1015625 3.96484375 C418.87566406 3.95130859 418.87566406 3.95130859 417.625 3.9375 C416.40683594 3.92009766 416.40683594 3.92009766 415.1640625 3.90234375 C412.95062858 3.85533666 412.95062858 3.85533666 411 5 C408.98072489 4.39421747 406.97746603 3.73080266 405 3 C405 2.34 405 1.68 405 1 C404.401875 1.33 403.80375 1.66 403.1875 2 C401 3 401 3 398 3 C398 2.34 398 1.68 398 1 C397.443125 1.350625 396.88625 1.70125 396.3125 2.0625 C393.43331215 3.22973832 391.99190151 2.5983803 389 2 C388.38125 2.309375 387.7625 2.61875 387.125 2.9375 C382.99020374 5.00489813 378.92684121 4.27461962 374.625 3 C368.55409053 1.32526635 362.72133145 1.04705473 357 4 C357 3.01 357 2.02 357 1 C356.21625 1.309375 355.4325 1.61875 354.625 1.9375 C348.61130951 3.70013342 342.12232728 4.83669819 336 3 C336 2.34 336 1.68 336 1 C335.195625 1.556875 334.39125 2.11375 333.5625 2.6875 C328.62341425 4.50716317 325.67238149 3.02469864 321 1 C320.67 1.66 320.34 2.32 320 3 C320 2.34 320 1.68 320 1 C317.20743781 1.11361602 314.41655882 1.2403589 311.625 1.375 C310.8309375 1.4059375 310.036875 1.436875 309.21875 1.46875 C304.63332625 1.51816421 304.63332625 1.51816421 301 4 C298.875 3.625 298.875 3.625 297 3 C297.33 2.34 297.66 1.68 298 1 C297.21625 1.474375 296.4325 1.94875 295.625 2.4375 C294.11051322 3.33898023 292.5764103 4.21179485 291 5 C290.01 4.34 289.02 3.68 288 3 C288 2.34 288 1.68 288 1 C286.515 1.495 286.515 1.495 285 2 C282.8125 1.5625 282.8125 1.5625 281 1 C281 1.66 281 2.32 281 3 C277.7 3.33 274.4 3.66 271 4 C271 3.34 271 2.68 271 2 C270.0925 2.309375 269.185 2.61875 268.25 2.9375 C267.1775 3.288125 266.105 3.63875 265 4 C264.360625 4.2475 263.72125 4.495 263.0625 4.75 C259.82123155 5.14288102 257.09577694 3.94447432 254 3 C248.13177974 1.69595105 243.68377841 2.44050524 238 4 C237.67 3.34 237.34 2.68 237 2 C233.97065509 1.34227572 233.97065509 1.34227572 231 1 C230.67 1.66 230.34 2.32 230 3 C230 2.34 230 1.68 230 1 C228.3745692 1.14095064 226.74965949 1.28792087 225.125 1.4375 C224.22007812 1.51871094 223.31515625 1.59992187 222.3828125 1.68359375 C219.98889139 1.86989285 219.98889139 1.86989285 218 3 C218 2.34 218 1.68 218 1 C215.74971671 1.14139481 213.49977794 1.28828003 211.25 1.4375 C209.99703125 1.51871094 208.7440625 1.59992187 207.453125 1.68359375 C204.81682447 1.92515522 202.51962706 2.24283934 200 3 C200 2.34 200 1.68 200 1 C198.20793453 1.14084796 196.41635083 1.28783701 194.625 1.4375 C193.12839844 1.55931641 193.12839844 1.55931641 191.6015625 1.68359375 C189.02072387 1.84965626 189.02072387 1.84965626 187 3 C187 2.34 187 1.68 187 1 C186.01 1.33 185.02 1.66 184 2 C182.64580318 2.01877105 181.29057711 1.99566967 179.9375 1.9375 C175.99275213 1.54338439 175.99275213 1.54338439 174 4 C173.29875 3.62875 172.5975 3.2575 171.875 2.875 C168.98772316 1.68774125 168.98772316 1.68774125 166.125 3 C162.06913213 4.29787772 160.00718149 3.26542573 156 2 C150.64875266 1.60306897 150.64875266 1.60306897 146 4 C144.0625 3.6875 144.0625 3.6875 142 3 C139.00508922 2.11876826 136.36841271 1.89164099 133.25 1.9375 C132.05117188 1.95103516 132.05117188 1.95103516 130.828125 1.96484375 C129.92320312 1.98224609 129.92320312 1.98224609 129 2 C128.67 2.66 128.34 3.32 128 4 C126.68 3.67 125.36 3.34 124 3 C124 2.34 124 1.68 124 1 C123.01 1.33 122.02 1.66 121 2 C118.97965322 2.04434232 116.95795155 2.03927974 114.9375 2 C110.81259998 1.78848948 110.81259998 1.78848948 107 3 C107 2.34 107 1.68 107 1 C105.68 1 104.36 1 103 1 C102.67 1.99 102.34 2.98 102 4 C97.94393835 3.53199289 94.53411321 3.12046792 91 1 C90.67 1.66 90.34 2.32 90 3 C90 2.34 90 1.68 90 1 C82.44961578 1.65349633 82.44961578 1.65349633 75 3 C75 2.34 75 1.68 75 1 C72.52733235 1.34444881 72.52733235 1.34444881 70 2 C69.67 2.66 69.34 3.32 69 4 C60.55426211 3.13518588 60.55426211 3.13518588 57.4375 2.375 C54.53565858 1.92856286 52.01629933 2.43620677 49.13671875 2.875 C45.51723701 3.08674299 42.44814643 2.04675874 39 1 C38.67 1.99 38.34 2.98 38 4 C33.55129785 4.39253254 30.85756507 3.15305957 27 1 C27 1.99 27 2.98 27 4 C25.68 3.67 24.36 3.34 23 3 C23 2.34 23 1.68 23 1 C21.02 1 19.04 1 17 1 C17 1.66 17 2.32 17 3 C11.39 2.34 5.78 1.68 0 1 C0 0.67 0 0.34 0 0 Z M197 3 C197.99 3.33 198.98 3.66 200 4 C199.01 4.33 198.02 4.66 197 5 C197 4.34 197 3.68 197 3 Z " fill="#D2D2D2" transform="translate(354,719)"/>
<path d="M0 0 C0.33 0 0.66 0 1 0 C1 4.29 1 8.58 1 13 C220.78 13 440.56 13 667 13 C667 13.33 667 13.66 667 14 C603.42439788 14.11247194 539.84879364 14.22371223 476.2731781 14.32835388 C474.86294278 14.33067557 474.86294278 14.33067557 473.42421785 14.33304417 C452.99464261 14.36667025 432.56506702 14.40007368 412.13549105 14.4332476 C402.11758967 14.44951621 392.09968837 14.46583404 382.08178711 14.48217773 C380.58639313 14.48461614 380.58639313 14.48461614 379.06078918 14.4871038 C346.71706704 14.53986685 314.37335152 14.59588371 282.02963783 14.65357857 C248.80674268 14.7128246 215.5838436 14.76880669 182.36093603 14.82065109 C177.67404924 14.82796652 172.9871625 14.83531946 168.3002758 14.84269524 C166.91653488 14.8448711 166.91653488 14.8448711 165.5048396 14.84709091 C150.62398216 14.87058694 135.7431329 14.89754853 120.86228379 14.92578938 C105.92094426 14.95407167 90.9796023 14.97874281 76.03825063 14.99967117 C67.14909019 15.01223351 58.25994481 15.02762117 49.37079647 15.04695946 C43.4442644 15.05958066 37.51773411 15.06861606 31.59119169 15.07465136 C28.20703354 15.07820279 24.82289844 15.08339305 21.43875141 15.09292836 C17.80576721 15.10234027 14.17282873 15.10570781 10.53983402 15.10743046 C9.47236263 15.11166182 8.40489123 15.11589318 7.30507222 15.12025276 C5.86756737 15.11903194 5.86756737 15.11903194 4.40102202 15.11778647 C3.56886539 15.11919029 2.73670876 15.12059412 1.87933526 15.12204048 C0 15 0 15 -1 14 C-1.0989294 11.83519203 -1.129711 9.66706215 -1.125 7.5 C-1.12757813 6.3140625 -1.13015625 5.128125 -1.1328125 3.90625 C-1 1 -1 1 0 0 Z " fill="#E7E7E7" transform="translate(353,705)"/>
<path d="M0 0 C1 2 1 2 0.5 4.375 C-0.01785254 7.09372585 0.30461112 8.39229171 1 11 C0.67 11.99 0.34 12.98 0 14 C0.22622897 15.94713911 0.45760931 17.89405997 0.7333374 19.83480835 C1.14565027 23.18262089 1.14296879 26.52721687 1.1328125 29.89453125 C1.13376923 30.60856613 1.13472595 31.32260101 1.13571167 32.05827332 C1.13638635 33.55146372 1.13458227 35.04465718 1.13037109 36.5378418 C1.12497256 38.82412218 1.13036051 41.11020967 1.13671875 43.39648438 C1.13605862 44.8541671 1.1347788 46.3118497 1.1328125 47.76953125 C1.13112061 49.74336792 1.13112061 49.74336792 1.12939453 51.75708008 C1 55 1 55 0 58 C-0.14129576 61.39109824 -0.07898093 63.7630572 1 67 C0.67 67.99 0.34 68.98 0 70 C0.33129332 71.66707337 0.66511508 73.3336444 1 75 C1.09292443 77.81757981 1.13667783 80.60983147 1.12939453 83.42700195 C1.13114685 84.26344238 1.13289917 85.09988281 1.13470459 85.96166992 C1.1390974 88.72056162 1.13619334 91.47938892 1.1328125 94.23828125 C1.13348647 96.16253166 1.13445727 98.08678199 1.13571167 100.0110321 C1.13718532 104.04341442 1.13504545 108.07577456 1.13037109 112.1081543 C1.12468552 117.26273275 1.12794749 122.417259 1.13394356 127.57183552 C1.13756795 131.54650766 1.13640176 135.52116755 1.13381577 139.49584007 C1.13315109 141.3955403 1.13395877 143.29524166 1.13629532 145.19494057 C1.13885143 147.85826151 1.13493925 150.52149963 1.12939453 153.18481445 C1.13141876 153.96171127 1.13344299 154.73860809 1.13552856 155.53904724 C1.11673215 160.44377018 0.64952192 165.13907574 0 170 C0.1385507 172.21258682 0.1385507 172.21258682 0.5625 174.0625 C1.05731206 178.51580855 0.47020232 180.84884051 -1 185 C-0.34 185.33 0.32 185.66 1 186 C1.06943717 193.6580332 1.12277913 201.31603387 1.15543652 208.97430992 C1.17110864 212.53018671 1.19237444 216.08584852 1.22631836 219.64160156 C1.26507759 223.72723482 1.27969633 227.81264141 1.29296875 231.8984375 C1.30845261 233.17866791 1.32393646 234.45889832 1.33988953 235.77792358 C1.34011612 236.95899689 1.34034271 238.14007019 1.34057617 239.35693359 C1.34723801 240.40062103 1.35389984 241.44430847 1.36076355 242.5196228 C1.24171158 243.33814728 1.12265961 244.15667175 1 245 C-0.485 245.99 -0.485 245.99 -2 247 C-2.04558808 215.82249702 -2.08100016 184.64500282 -2.10213066 153.46747444 C-2.10463219 149.78983967 -2.10722082 146.11220498 -2.10986328 142.43457031 C-2.1103879 141.70239431 -2.11091252 140.97021832 -2.11145304 140.21585517 C-2.12016462 128.34788673 -2.13593872 116.4799376 -2.15430559 104.61198063 C-2.17298372 92.44173863 -2.18411229 80.27150676 -2.18817699 68.10125101 C-2.19092639 60.58662687 -2.19962186 53.07205728 -2.21583293 45.55744992 C-2.22761704 39.80314776 -2.22891664 34.04888084 -2.22621536 28.29456902 C-2.226768 25.92817155 -2.23077798 23.56177211 -2.23841095 21.19538689 C-2.24828629 17.97739908 -2.24599614 14.75964922 -2.24050903 11.54165649 C-2.24633472 10.59419984 -2.2521604 9.6467432 -2.25816262 8.67057574 C-2.25418052 7.81316172 -2.25019842 6.95574771 -2.24609566 6.07235146 C-2.2468551 5.32885905 -2.24761454 4.58536664 -2.24839699 3.81934416 C-2 2 -2 2 0 0 Z " fill="#E0E1E0" transform="translate(1024,463)"/>
<path d="M0 0 C5.28 0 10.56 0 16 0 C16 23.43 16 46.86 16 71 C15.34 71 14.68 71 14 71 C13.505 71.99 13.505 71.99 13 73 C13 49.57 13 26.14 13 2 C9.37 2 5.74 2 2 2 C2 26.75 2 51.5 2 77 C4.97 77 7.94 77 11 77 C11 77.33 11 77.66 11 78 C8.03 78 5.06 78 2 78 C2 78.66 2 79.32 2 80 C6.29 80 10.58 80 15 80 C15.33 79.01 15.66 78.02 16 77 C16 78.32 16 79.64 16 81 C10.72 81 5.44 81 0 81 C0 54.27 0 27.54 0 0 Z " fill="#0F152D" transform="translate(686,568)"/>
<path d="M0 0 C22.11 0 44.22 0 67 0 C67 4.62 67 9.24 67 14 C66.67 14 66.34 14 66 14 C66 10.37 66 6.74 66 3 C44.88 3 23.76 3 2 3 C2 6.3 2 9.6 2 13 C9.59 13 17.18 13 25 13 C25 13.33 25 13.66 25 14 C16.75 14 8.5 14 0 14 C0 9.38 0 4.76 0 0 Z " fill="#272C3F" transform="translate(714,567)"/>
<path d="M0 0 C0.33 0 0.66 0 1 0 C1.04667809 15.08996338 1.08196824 30.17992117 1.10362434 45.26994133 C1.11394599 52.27617681 1.12802321 59.28236749 1.15087891 66.28857422 C1.17290853 73.04476669 1.18455535 79.80090289 1.18975449 86.55713272 C1.19346155 89.14003357 1.20070005 91.72293174 1.21146011 94.30581284 C1.22589163 97.91210275 1.22798144 101.51819777 1.22705078 105.12451172 C1.23424133 106.20200684 1.24143188 107.27950195 1.24884033 108.38964844 C1.246091 109.36843964 1.24334167 110.34723083 1.24050903 111.35568237 C1.24235262 112.20926268 1.24419621 113.06284298 1.24609566 113.94228935 C1 116 1 116 -1 118 C-2.12867177 105.95410373 -2.1464984 93.96627531 -2.1328125 81.87890625 C-2.13348757 79.76334115 -2.13445928 77.64777614 -2.13571167 75.5322113 C-2.13717684 71.12571464 -2.13507082 66.71923841 -2.13037109 62.31274414 C-2.12464985 56.67517521 -2.12797539 51.03765364 -2.13394356 45.4000864 C-2.13756021 41.04287866 -2.13640592 36.68568213 -2.13381577 32.32847404 C-2.13315083 30.24931775 -2.13395971 28.17016042 -2.13629532 26.09100533 C-2.1388427 23.18897938 -2.13495295 20.28703003 -2.12939453 17.38500977 C-2.13141876 16.53450043 -2.13344299 15.68399109 -2.13552856 14.80770874 C-2.09054304 2.09054304 -2.09054304 2.09054304 0 0 Z " fill="#E1E1E1" transform="translate(353,396)"/>
<path d="M0 0 C0.33 0.66 0.66 1.32 1 2 C25.42 2 49.84 2 75 2 C74.34 3.32 73.68 4.64 73 6 C73 5.34 73 4.68 73 4 C48.25 4 23.5 4 -2 4 C-2 3.34 -2 2.68 -2 2 C-1.34 2 -0.68 2 0 2 C0 1.34 0 0.68 0 0 Z " fill="#2C9870" transform="translate(794,391)"/>
<path d="M0 0 C0.66 0.33 1.32 0.66 2 1 C2.04627664 10.7442238 2.08184536 20.48842159 2.10362434 30.23273277 C2.11407551 34.7570826 2.1282589 39.28135741 2.15087891 43.80566406 C2.17255993 48.16931524 2.18455858 52.53289413 2.18975449 56.896595 C2.19345879 58.56402347 2.20069207 60.23144785 2.21146011 61.89884567 C2.2259122 64.22871295 2.22798061 66.55827894 2.22705078 68.88818359 C2.23424133 69.58229843 2.24143188 70.27641327 2.24884033 70.99156189 C2.22810432 75.77189568 2.22810432 75.77189568 0 78 C-1.12537167 74.52941191 -0.90356336 71.72521237 -0.53125 68.1171875 C0.35338418 57.15849801 -0.23887303 46.21173313 -0.59326172 35.23681641 C-0.96506107 23.40957751 -1.02426689 11.7981155 0 0 Z " fill="#E0E0E0" transform="translate(352,520)"/>
<path d="M0 0 C0.33 0 0.66 0 1 0 C1 22.44 1 44.88 1 68 C0.01 68.495 0.01 68.495 -1 69 C-2.08131108 62.37696964 -2.04390874 55.88576233 -1.9375 49.1953125 C-1.76907806 46.10381345 -1.76907806 46.10381345 -3 44 C-2.33333333 42 -1.66666667 40 -1 38 C-1.33 37.34 -1.66 36.68 -2 36 C-1.85691406 35.44594482 -1.71382813 34.89188965 -1.56640625 34.32104492 C-0.78850561 31.1333288 -0.90757721 28.14252795 -0.9375 24.86328125 C-0.94128662 24.18323532 -0.94507324 23.50318939 -0.94897461 22.80253601 C-0.96115487 20.63912516 -0.97979751 18.4758499 -1 16.3125 C-1.02649573 13.454431 -1.04651787 10.59642612 -1.0625 7.73828125 C-1.07410156 6.47024658 -1.08570313 5.20221191 -1.09765625 3.89575195 C-1 1 -1 1 0 0 Z " fill="#E0E0E0" transform="translate(353,610)"/>
<path d="M0 0 C2.46433534 2.46433534 2.23642355 3.84350741 2.25224304 7.20666504 C2.24505753 7.91190308 2.23787201 8.61714111 2.23046875 9.34375 C2.23001053 10.06864624 2.22955231 10.79354248 2.2290802 11.54040527 C2.22605799 13.07366573 2.21817258 14.60692312 2.20581055 16.14013672 C2.18757239 18.49067022 2.18530074 20.84080943 2.18554688 23.19140625 C2.18063091 24.67969092 2.17480225 26.1679729 2.16796875 27.65625 C2.16685593 28.36148804 2.1657431 29.06672607 2.16459656 29.79333496 C2.11607536 34.76784928 2.11607536 34.76784928 1 37 C1.21662948 40.03281278 1.58165362 43.03573244 1.94140625 46.0546875 C2.00170041 49.08547379 1.60185177 50.47845386 0 53 C0.66 53 1.32 53 2 53 C1.34 54.98 0.68 56.96 0 59 C-0.33 59 -0.66 59 -1 59 C-1.02312851 51.45501767 -1.04091769 43.91003899 -1.05181217 36.36502934 C-1.05703989 32.86191115 -1.0641355 29.35881715 -1.07543945 25.85571289 C-1.08834206 21.83219159 -1.09322912 17.80869586 -1.09765625 13.78515625 C-1.10539818 11.88987938 -1.10539818 11.88987938 -1.11329651 9.95631409 C-1.11337204 8.795186 -1.11344757 7.63405792 -1.11352539 6.43774414 C-1.11685631 4.8955294 -1.11685631 4.8955294 -1.12025452 3.32215881 C-1 1 -1 1 0 0 Z " fill="#E1E1E1" transform="translate(1023,405)"/>
<path d="M0 0 C1.10085938 -0.01417969 2.20171875 -0.02835938 3.3359375 -0.04296875 C6.73975276 0.19554087 9.44916186 0.97377334 12.625 2.1875 C10.95763592 4.23220249 10.10002434 5.11316921 7.44848633 5.52807617 C6.62630615 5.51236572 5.80412598 5.49665527 4.95703125 5.48046875 C4.06435547 5.47080078 3.17167969 5.46113281 2.25195312 5.45117188 C0.85879883 5.4134668 0.85879883 5.4134668 -0.5625 5.375 C-1.50287109 5.36146484 -2.44324219 5.34792969 -3.41210938 5.33398438 C-5.73365038 5.29863096 -8.05403653 5.24928674 -10.375 5.1875 C-10.375 3.8675 -10.375 2.5475 -10.375 1.1875 C-6.8895007 0.12484777 -3.63345793 0.021174 0 0 Z " fill="#23283E" transform="translate(632.375,565.8125)"/>
<path d="M0 0 C2.23413013 3.35119519 2.23847762 4.4177755 2.1953125 8.32421875 C2.18886719 9.35224609 2.18242188 10.38027344 2.17578125 11.43945312 C2.15902344 12.51130859 2.14226563 13.58316406 2.125 14.6875 C2.11597656 15.77095703 2.10695313 16.85441406 2.09765625 17.97070312 C2.0740734 20.6473571 2.04116126 23.32356797 2 26 C1.34 26.33 0.68 26.66 0 27 C-0.33 25.35 -0.66 23.7 -1 22 C-1.33 22 -1.66 22 -2 22 C-2.05401695 19.08308475 -2.09368066 16.16717276 -2.125 13.25 C-2.14175781 12.425 -2.15851562 11.6 -2.17578125 10.75 C-2.18222656 9.95078125 -2.18867187 9.1515625 -2.1953125 8.328125 C-2.20578613 7.5949707 -2.21625977 6.86181641 -2.22705078 6.10644531 C-1.96777544 3.70103924 -1.19225925 2.08748506 0 0 Z " fill="#111832" transform="translate(813,318)"/>
<path d="M0 0 C9.57 0 19.14 0 29 0 C29 0.66 29 1.32 29 2 C25.7 2.33 22.4 2.66 19 3 C19 2.34 19 1.68 19 1 C18.0925 1.309375 17.185 1.61875 16.25 1.9375 C15.1775 2.288125 14.105 2.63875 13 3 C12.360625 3.2475 11.72125 3.495 11.0625 3.75 C7.75654738 4.15072153 5.09777376 3.08995744 2 2 C1.34 1.34 0.68 0.68 0 0 Z " fill="#DCDDDC" transform="translate(606,720)"/>
<path d="M0 0 C0.66 0 1.32 0 2 0 C2.33 3.3 2.66 6.6 3 10 C2.34 10 1.68 10 1 10 C1.495 10.928125 1.495 10.928125 2 11.875 C3.38385227 16.19953833 3.6805446 20.49962442 3 25 C2.01 26.32 1.02 27.64 0 29 C0 19.43 0 9.86 0 0 Z " fill="#E2E2E2" transform="translate(1022,299)"/>
<path d="M0 0 C5.94 0 11.88 0 18 0 C17.67 0.99 17.34 1.98 17 3 C16.06027344 2.98259766 16.06027344 2.98259766 15.1015625 2.96484375 C13.87566406 2.95130859 13.87566406 2.95130859 12.625 2.9375 C11.40683594 2.92009766 11.40683594 2.92009766 10.1640625 2.90234375 C7.95062858 2.85533666 7.95062858 2.85533666 6 4 C3.98072489 3.39421747 1.97746603 2.73080266 0 2 C0 1.34 0 0.68 0 0 Z " fill="#DDDDDC" transform="translate(759,720)"/>
<path d="M0 0 C0.66 0.66 1.32 1.32 2 2 C1.34 3.65 0.68 5.3 0 7 C-3.96 7 -7.92 7 -12 7 C-12.33 6.34 -12.66 5.68 -13 5 C-11.35 4.67 -9.7 4.34 -8 4 C-8 3.67 -8 3.34 -8 3 C-5.36 2.67 -2.72 2.34 0 2 C0 1.34 0 0.68 0 0 Z " fill="#0F152E" transform="translate(639,633)"/>
<path d="M0 0 C0.74886475 0.00523682 1.49772949 0.01047363 2.26928711 0.01586914 C3.07817383 0.0190918 3.88706055 0.02231445 4.72045898 0.02563477 C5.5705957 0.03401367 6.42073242 0.04239258 7.29663086 0.05102539 C8.15063477 0.05553711 9.00463867 0.06004883 9.88452148 0.06469727 C12.00108749 0.07652166 14.11761771 0.0944577 16.23413086 0.11352539 C16.23413086 0.77352539 16.23413086 1.43352539 16.23413086 2.11352539 C1.82236615 4.17234892 1.82236615 4.17234892 -2.76586914 1.11352539 C-1.76586914 0.11352539 -1.76586914 0.11352539 0 0 Z " fill="#DCDDDC" transform="translate(986.765869140625,719.886474609375)"/>
<path d="M0 0 C0 0.99 0 1.98 0 3 C-0.66 3 -1.32 3 -2 3 C-2 3.66 -2 4.32 -2 5 C-3.45792884 5.05399736 -4.91642712 5.09279177 -6.375 5.125 C-7.18710937 5.14820313 -7.99921875 5.17140625 -8.8359375 5.1953125 C-11 5 -11 5 -13 3 C-11.39743892 2.49487756 -9.79288208 1.99608373 -8.1875 1.5 C-7.29417969 1.2215625 -6.40085937 0.943125 -5.48046875 0.65625 C-3 0 -3 0 0 0 Z " fill="#242A41" transform="translate(639,147)"/>
<path d="M0 0 C6.27 0 12.54 0 19 0 C13.11913043 2.94043478 6.42287432 3.9268623 0 2 C0 1.34 0 0.68 0 0 Z " fill="#DBDCDB" transform="translate(690,720)"/>
<path d="M0 0 C0.99 0.99 1.98 1.98 3 3 C-0.63 5.97 -4.26 8.94 -8 12 C-8.66 11.67 -9.32 11.34 -10 11 C-6.7 7.37 -3.4 3.74 0 0 Z " fill="#103137" transform="translate(839,448)"/>
<path d="M0 0 C4.95 0 9.9 0 15 0 C14.67 0.66 14.34 1.32 14 2 C11.78515625 2.66796875 11.78515625 2.66796875 9.0625 3.1875 C8.16660156 3.36667969 7.27070312 3.54585937 6.34765625 3.73046875 C4 4 4 4 2 3 C2 2.34 2 1.68 2 1 C1.34 0.67 0.68 0.34 0 0 Z " fill="#DCDDDC" transform="translate(895,720)"/>
<path d="M0 0 C4.29 0 8.58 0 13 0 C13 0.99 13 1.98 13 3 C5.76232202 4.34939759 5.76232202 4.34939759 2 2.625 C1.34 2.08875 0.68 1.5525 0 1 C0 0.67 0 0.34 0 0 Z " fill="#DDDDDD" transform="translate(872,720)"/>
<path d="M0 0 C0.33 0 0.66 0 1 0 C1.0809723 2.43816585 1.14046972 4.87364384 1.1875 7.3125 C1.22520508 8.34793945 1.22520508 8.34793945 1.26367188 9.40429688 C1.29296875 11.42578125 1.29296875 11.42578125 1 15 C0.01 15.99 -0.98 16.98 -2 18 C-2 14.04 -2 10.08 -2 6 C-1.67 6 -1.34 6 -1 6 C-0.67 4.02 -0.34 2.04 0 0 Z " fill="#11172F" transform="translate(564,323)"/>
<path d="M0 0 C4.62 0 9.24 0 14 0 C13.01 1.485 13.01 1.485 12 3 C7.45100954 3.42915004 4.10789738 2.99170782 0 1 C0 0.67 0 0.34 0 0 Z " fill="#DBDBDB" transform="translate(727,720)"/>
<path d="M0 0 C3.63 0 7.26 0 11 0 C10.34 1.32 9.68 2.64 9 4 C8.05125 3.814375 7.1025 3.62875 6.125 3.4375 C3.10131207 2.71313368 3.10131207 2.71313368 1 4 C0.67 2.68 0.34 1.36 0 0 Z " fill="#DEDEDD" transform="translate(960,720)"/>
<path d="M0 0 C0.33 0.99 0.66 1.98 1 3 C-5.14285714 9.71428571 -5.14285714 9.71428571 -10 10 C-7.02911382 6.00073014 -3.87051275 3.07881696 0 0 Z " fill="#0D3136" transform="translate(814,474)"/>
<path d="M0 0 C2.4294516 3.6441774 2.16179575 5.71241272 2 10 C1.01 10 0.02 10 -1 10 C-2.25 3.375 -2.25 3.375 0 0 Z " fill="#141B32" transform="translate(509,387)"/>
<path d="M0 0 C3.21524305 1.40844718 5.32183868 3.10344786 7.75 5.625 C8.67039062 6.57246094 8.67039062 6.57246094 9.609375 7.5390625 C10.29773438 8.26222656 10.29773438 8.26222656 11 9 C10.67 9.66 10.34 10.32 10 11 C8.68 10.67 7.36 10.34 6 10 C6 9.01 6 8.02 6 7 C4.37550757 5.29220027 2.70779973 3.62449243 1 2 C0.67 1.34 0.34 0.68 0 0 Z " fill="#151C2E" transform="translate(847,457)"/>
<path d="M0 0 C1.3921875 0.0928125 1.3921875 0.0928125 2.8125 0.1875 C3.1425 1.1775 3.4725 2.1675 3.8125 3.1875 C0.5125 3.1875 -2.7875 3.1875 -6.1875 3.1875 C-3.1875 0.1875 -3.1875 0.1875 0 0 Z " fill="#131930" transform="translate(744.1875,148.8125)"/>
<path d="M0 0 C3.63 0 7.26 0 11 0 C11 0.66 11 1.32 11 2 C8.36 2.33 5.72 2.66 3 3 C3 2.34 3 1.68 3 1 C2.34 1 1.68 1 1 1 C0.67 1.66 0.34 2.32 0 3 C0 2.01 0 1.02 0 0 Z " fill="#DBDCDC" transform="translate(784,720)"/>
<path d="M0 0 C3.63 0 7.26 0 11 0 C10.67 0.66 10.34 1.32 10 2 C6.18015204 2.77811718 3.73159669 3.24386556 0 2 C0 1.34 0 0.68 0 0 Z " fill="#DCDCDB" transform="translate(512,720)"/>
<path d="M0 0 C0 0.66 0 1.32 0 2 C-5.12919186 4.10428384 -9.5610835 4.21755666 -15 4 C-12.15436696 2.45374278 -9.54069019 1.54201833 -6.375 0.875 C-5.59898437 0.70742188 -4.82296875 0.53984375 -4.0234375 0.3671875 C-2 0 -2 0 0 0 Z " fill="#DCFCEF" transform="translate(744,515)"/>
<path d="M0 0 C2 3 2 3 1.7578125 5.48046875 C1.54898437 6.37378906 1.34015625 7.26710937 1.125 8.1875 C0.92132812 9.08855469 0.71765625 9.98960937 0.5078125 10.91796875 C0.34023438 11.60503906 0.17265625 12.29210937 0 13 C-0.33 13 -0.66 13 -1 13 C-1.02686553 11.02090602 -1.04633375 9.04171029 -1.0625 7.0625 C-1.07410156 5.96035156 -1.08570313 4.85820312 -1.09765625 3.72265625 C-1 1 -1 1 0 0 Z " fill="#E3E3E3" transform="translate(1023,191)"/>
<path d="M0 0 C1.65 0 3.3 0 5 0 C4.67 0.99 4.34 1.98 4 3 C-0.95 3 -5.9 3 -11 3 C-11 2.67 -11 2.34 -11 2 C-7.37 2 -3.74 2 0 2 C0 1.34 0 0.68 0 0 Z " fill="#101632" transform="translate(713,143)"/>
<path d="M0 0 C0.99 0.33 1.98 0.66 3 1 C1.88121617 2.17262904 0.75476949 3.33795138 -0.375 4.5 C-1.00148438 5.1496875 -1.62796875 5.799375 -2.2734375 6.46875 C-4 8 -4 8 -6 8 C-4.55746343 4.63408134 -2.66735273 2.48952921 0 0 Z " fill="#161C31" transform="translate(609,574)"/>
<path d="M0 0 C0.33 0 0.66 0 1 0 C1.61528766 5.07612318 -0.38341651 7.82982006 -3 12 C-3.66 12 -4.32 12 -5 12 C-3.68938409 7.76570244 -2.05643741 3.92592596 0 0 Z " fill="#D5FBEA" transform="translate(860,414)"/>
<path d="M0 0 C0.66 0 1.32 0 2 0 C2 0.66 2 1.32 2 2 C2.66 2 3.32 2 4 2 C3.39816251 4.02045442 2.72693904 6.02111039 2 8 C1.01 8.495 1.01 8.495 0 9 C0 6.03 0 3.06 0 0 Z " fill="#141A30" transform="translate(579,265)"/>
<path d="M0 0 C2.9375 0.375 2.9375 0.375 6 1 C6.33 1.66 6.66 2.32 7 3 C3.78548731 4.60725635 0.56387464 4.05748185 -3 4 C-2.01 2.68 -1.02 1.36 0 0 Z " fill="#131B32" transform="translate(757,154)"/>
<path d="M0 0 C-3.6441774 2.4294516 -5.71241272 2.16179575 -10 2 C-10.33 1.34 -10.66 0.68 -11 0 C-7.18243176 -1.37432457 -3.92744671 -0.67975039 0 0 Z " fill="#21273C" transform="translate(660,144)"/>
<path d="M0 0 C2.97 0 5.94 0 9 0 C8.67 0.99 8.34 1.98 8 3 C5.6568787 2.74438677 3.32156597 2.40729228 1 2 C0.67 1.34 0.34 0.68 0 0 Z " fill="#DCDCDC" transform="translate(448,720)"/>
<path d="M0 0 C3.3 0 6.6 0 10 0 C9.67 0.99 9.34 1.98 9 3 C4.45804635 3.37849614 3.9855604 2.9891703 0 0 Z " fill="#DCDDDC" transform="translate(383,720)"/>
<path d="M0 0 C0.66 0.66 1.32 1.32 2 2 C1.01 3.485 1.01 3.485 0 5 C-3.625 5.1875 -3.625 5.1875 -7 5 C-7.33 4.34 -7.66 3.68 -8 3 C-5.36 2.67 -2.72 2.34 0 2 C0 1.34 0 0.68 0 0 Z " fill="#151B33" transform="translate(639,633)"/>
<path d="M0 0 C0.66 0 1.32 0 2 0 C2.33 2.31 2.66 4.62 3 7 C2.01 7.66 1.02 8.32 0 9 C-0.84454356 5.62182575 -1.10844919 3.32534757 0 0 Z " fill="#131B34" transform="translate(806,289)"/>
<path d="M0 0 C3.63 0 7.26 0 11 0 C10.67 0.99 10.34 1.98 10 3 C8.5199159 2.88637738 7.04089926 2.75877092 5.5625 2.625 C4.73878906 2.55539062 3.91507812 2.48578125 3.06640625 2.4140625 C2.38449219 2.27742187 1.70257813 2.14078125 1 2 C0.67 1.34 0.34 0.68 0 0 Z " fill="#DCDCDC" transform="translate(413,720)"/>
<path d="M0 0 C1 3 1 3 0.22265625 5.04296875 C-0.16019531 5.75066406 -0.54304687 6.45835937 -0.9375 7.1875 C-1.31777344 7.90292969 -1.69804688 8.61835938 -2.08984375 9.35546875 C-2.54037109 10.16951172 -2.54037109 10.16951172 -3 11 C-3.66 11 -4.32 11 -5 11 C-4.54917531 9.53932801 -4.08906463 8.08151968 -3.625 6.625 C-3.36976563 5.81289063 -3.11453125 5.00078125 -2.8515625 4.1640625 C-2 2 -2 2 0 0 Z " fill="#14AF6A" transform="translate(698,499)"/>
<path d="M0 0 C2 4 2 4 1.3125 6.625 C0 9 0 9 -3 11 C-2.01 7.37 -1.02 3.74 0 0 Z " fill="#2A3042" transform="translate(508,265)"/>
<path d="M0 0 C0.66 0 1.32 0 2 0 C3.41687119 4.25061356 2.19320039 6.71851625 1 11 C0.67 11 0.34 11 0 11 C0 7.37 0 3.74 0 0 Z " fill="#E2E2E1" transform="translate(1022,263)"/>
<path d="M0 0 C0.66 1.32 1.32 2.64 2 4 C0.7260411 6.03833424 -0.61061923 8.03852126 -2 10 C-2.66 10 -3.32 10 -4 10 C-2.8905928 6.51329166 -1.73662334 3.22515763 0 0 Z " fill="#262A3E" transform="translate(518,243)"/>
<path d="M0 0 C0.33 0 0.66 0 1 0 C1.33 2.64 1.66 5.28 2 8 C1.01 8.66 0.02 9.32 -1 10 C-1.02689216 8.52093108 -1.04634621 7.04172517 -1.0625 5.5625 C-1.07410156 4.73878906 -1.08570313 3.91507812 -1.09765625 3.06640625 C-1 1 -1 1 0 0 Z " fill="#E4E4E4" transform="translate(1023,69)"/>
<path d="M0 0 C0.33 0.66 0.66 1.32 1 2 C1.66 2 2.32 2 3 2 C4.49524178 4.2727675 5.78399715 6.5679943 7 9 C3.63408134 7.55746343 1.48952921 5.66735273 -1 3 C-0.67 2.01 -0.34 1.02 0 0 Z " fill="#101529" transform="translate(820,531)"/>
<path d="M0 0 C0.99 0.33 1.98 0.66 3 1 C3.1875 3.875 3.1875 3.875 3 7 C2.01 7.66 1.02 8.32 0 9 C0 6.03 0 3.06 0 0 Z " fill="#E1E1E1" transform="translate(1022,390)"/>
<path d="M0 0 C0.66 0 1.32 0 2 0 C2 2.31 2 4.62 2 7 C1.01 7.495 1.01 7.495 0 8 C-1.125 2.25 -1.125 2.25 0 0 Z " fill="#161C30" transform="translate(520,239)"/>
<path d="M0 0 C0 0.99 0 1.98 0 3 C-2.875 3.125 -2.875 3.125 -6 3 C-6.66 2.34 -7.32 1.68 -8 1 C-5.07175348 0.02391783 -3.04386724 -0.08226668 0 0 Z " fill="#131931" transform="translate(718,209)"/>
<path d="M0 0 C2.31 0 4.62 0 7 0 C5.68 1.32 4.36 2.64 3 4 C2.01 3.34 1.02 2.68 0 2 C0 1.34 0 0.68 0 0 Z " fill="#DEDDDD" transform="translate(642,720)"/>
<path d="M0 0 C0.66 0 1.32 0 2 0 C2.66 2.64 3.32 5.28 4 8 C3.01 7.67 2.02 7.34 1 7 C0.67 4.69 0.34 2.38 0 0 Z " fill="#262B3E" transform="translate(865,262)"/>
<path d="M0 0 C0.66 0 1.32 0 2 0 C2 2.97 2 5.94 2 9 C1.01 8.01 0.02 7.02 -1 6 C-0.6875 2.8125 -0.6875 2.8125 0 0 Z " fill="#F1F1F3" transform="translate(879,307)"/>
</svg>
